<svg xmlns="http://www.w3.org/2000/svg" viewBox="0 0 476.11 161.99"><defs><style>.cls-1{fill:#66e51b;}.cls-2{fill:#17132c;}</style></defs><g id="Layer_2" data-name="Layer 2"><g id="Powered_by_Wine_Ring" data-name="Powered by Wine Ring"><g id="Powered_by_Wine_Ring-2" data-name="Powered by Wine Ring"><path class="cls-1" d="M236.47,49h-2.4a1.63,1.63,0,0,1-1.64-1.63l0-9.19a1.69,1.69,0,0,1,1.65-1.67L252.34,36A1.65,1.65,0,0,1,254,37.54l.23,9.2a1.59,1.59,0,0,1-1.63,1.63H250.3l.31,21.51s.62,7.27,2.15,9.09,13,9.32,15.68,15.75,2.35,14.91,1.23,24.55-7.38,38.17-7.38,38.17S255.22,162,244.16,162a57.35,57.35,0,0,1-19.38-3.33l-7.68-41.82s-4.61-16.66,3.69-24.85,12.6-11.81,14.14-14.84S236.47,49,236.47,49m6.69-49a3.29,3.29,0,0,0-3.31,3.27V18a3.32,3.32,0,0,0,6.63,0V3.27A3.29,3.29,0,0,0,243.16,0M267.9,6.49a3.32,3.32,0,0,0-4.31,1.81L258,21.91a3.24,3.24,0,0,0,1.83,4.26,3.33,3.33,0,0,0,4.31-1.81l5.59-13.62a3.25,3.25,0,0,0-1.84-4.25m-49.48,0a3.32,3.32,0,0,1,4.31,1.81l5.58,13.61a3.24,3.24,0,0,1-1.83,4.26,3.33,3.33,0,0,1-4.31-1.81l-5.59-13.62a3.25,3.25,0,0,1,1.84-4.25"/><path class="cls-2" d="M39.92,77.57h8.14l-9.79,61H29.94L24.22,99h-.38l-5.72,39.62H9.88L0,77.57H8.53l6,40.6h.38l5.82-40.6h7l5.82,40.6h.38Z"/><path class="cls-2" d="M79.25,77.57v61h-9v-61Z"/><path class="cls-2" d="M127.51,77.57h8.33v61H129L112.78,97.43h-.39v41.18h-8.33v-61h8.33l14.73,37.79h.39Z"/><path class="cls-2" d="M186.12,138.61H160.74v-61h25V85H169.46v18.41h12.4v7.46h-12.4v20.25h16.66Z"/><path class="cls-2" d="M322.74,138.61c-1-3-1.26-6.2-1.65-14.05-.39-7.17-1.46-10.75-7.75-10.75H310v24.8h-8.82v-61H314c12.69,0,17.63,6.88,17.63,17.54,0,9.49-4.07,14.15-10.27,15.21,6.59,1.36,8,6.4,8.43,13.76.39,7.56.39,11.14,2,14.53ZM313,106.54c7.46,0,9.69-3.39,9.69-10.85,0-6.88-2.23-10.75-9.69-10.75h-3v21.6Z"/><path class="cls-2" d="M364.49,77.57v61h-9v-61Z"/><path class="cls-2" d="M412.74,77.57h8.34v61H414.2L398,97.43h-.39v41.18H389.3v-61h8.33l14.73,37.79h.38Z"/><path class="cls-2" d="M470.1,138.61l-.87-6.49c-1.16,4.94-5.23,7.27-9.59,7.27-10.47,0-14.63-9.5-14.63-26.65v-9.3c0-17.15,4.45-26.64,15.89-26.64s15,8.81,15,23.93v1H467.2V99.37c0-9.4-1-15.21-6.3-15.21s-6.69,5.81-6.69,15.21v17.25c0,9.49,1.65,15.31,6.78,15.31s6.69-5.72,6.69-15.31v-1.45H462v-7.08h14.15v30.52Z"/><path d="M5,50.25H.3V28.34H7.43c5.18,0,7.61,2.64,7.61,7.2s-2.43,7.24-7.61,7.24H5ZM7,39.05c2.3,0,3.48-.9,3.48-3.47S9.34,32.1,7,32.1H5v6.95Z"/><path d="M35.63,40c0,6.51-2.75,10.65-8.35,10.65S18.93,46.5,18.93,40V38.6c0-6.5,2.75-10.64,8.35-10.64s8.35,4.14,8.35,10.64Zm-4.8-2.33c0-3.89-1.19-5.81-3.55-5.81s-3.55,1.92-3.55,5.81v3.27c0,3.9,1.19,5.81,3.55,5.81s3.55-1.91,3.55-5.81Z"/><path d="M52.73,28.34l2.4,14.12h.14l2.54-14.12h4.38L57.78,50.25H53.12L50.51,35.19h-.14L47.76,50.25H43.1L38.68,28.34h4.66l2.47,14.12H46l2.47-14.12Z"/><path d="M79.44,50.25H66.29V28.34H79.37V32.2H70.88v5h6.47V41H70.88v5.39h8.56Z"/><path d="M95.12,50.25c-.46-.9-.7-2.15-.84-4.87-.14-2.22-.73-3.23-2.81-3.23H88.93v8.1H84.34V28.34h7.47c5.32,0,7.83,2.61,7.83,6.71,0,3.07-1.78,4.94-3.83,5.43,2,.63,2.82,2,3,4.69.21,2.93.35,4.07,1,5.08ZM91.64,38.5c2.36,0,3.41-1,3.41-3.17,0-2-1-3.23-3.41-3.23H88.93v6.4Z"/><path d="M117.58,50.25H104.43V28.34h13.08V32.2H109v5h6.47V41H109v5.39h8.56Z"/><path d="M122.48,28.34h7.06c6.08,0,8.83,3.62,8.83,10.33v1.25c0,6.72-2.75,10.33-8.83,10.33h-7.06Zm6.64,18.16c3,0,4.49-1.36,4.49-5.6V37.7c0-4.25-1.53-5.6-4.49-5.6h-2V46.5Z"/><path d="M159,50.25h-7.2V28.34h7.17c5,0,7,2.37,7,5.91a4.43,4.43,0,0,1-3.82,4.7,5,5,0,0,1,4.41,5.25C166.46,48,164.1,50.25,159,50.25Zm-2.75-12.9h2.13c2.39,0,3-1.11,3-2.57s-.63-2.72-3-2.72H156.2Zm0,3.55v5.6h2.54c2.44,0,3.2-1,3.2-2.79s-.76-2.81-3.23-2.81Z"/><path d="M181.41,28.34h4.7l-6.47,14.05v7.86h-4.52V42.39l-6.47-14h4.87l4,9Z"/></g></g></g></svg>