<svg id="Layer_1" data-name="Layer 1" xmlns="http://www.w3.org/2000/svg" xmlns:xlink="http://www.w3.org/1999/xlink" viewBox="0 0 194.93 179.65"><defs><clipPath id="clip-path"><ellipse cx="97.47" cy="88.81" rx="67.18" ry="68.48" style="fill:#17132c"/></clipPath></defs><rect width="194.93" height="179.65" style="fill:#17132c"/><ellipse cx="97.47" cy="88.81" rx="67.18" ry="68.48" style="fill:#17132c"/><g style="clip-path:url(#clip-path)"><path d="M80.75,50a2.23,2.23,0,0,1,2.92,1.23l3.77,9.34a2.24,2.24,0,1,1-4.15,1.67L79.52,52.9A2.22,2.22,0,0,1,80.75,50Zm33.43,0a2.22,2.22,0,0,0-2.91,1.23l-3.77,9.34a2.24,2.24,0,1,0,4.15,1.67l3.77-9.33A2.22,2.22,0,0,0,114.18,50ZM97.47,45.54a2.24,2.24,0,0,0-2.24,2.24V57.85a2.24,2.24,0,0,0,4.48,0V47.78A2.24,2.24,0,0,0,97.47,45.54ZM93,79.11H91.33A1.12,1.12,0,0,1,90.22,78v-6.3a1.16,1.16,0,0,1,1.12-1.15l12.32-.35a1.11,1.11,0,0,1,1.14,1.08l.15,6.31a1.07,1.07,0,0,1-1.1,1.11h-1.57l.21,14.75s.42,5,1.45,6.23,8.79,6.39,10.6,10.8,1.58,10.22.83,16.83-6.32,41-6.32,41-3.44-2.14-10.92-2.14-11.32,3.41-11.32,3.41l-7-44s-3.11-11.42,2.5-17,8.51-8.1,9.55-10.18S93,79.11,93,79.11Z" style="fill:#66e51b;fill-rule:evenodd"/></g><path d="M97.47,160.67a72,72,0,1,1,72-72A72.08,72.08,0,0,1,97.47,160.67Zm0-137.87a65.87,65.87,0,1,0,65.87,65.87A65.95,65.95,0,0,0,97.47,22.8Z" style="fill:#1621cb"/></svg>